M48
; DRILL file {KiCad (5.1.4)-1} date 16/01/2020 18:23:42
; FORMAT={-:-/ absolute / inch / decimal}
; #@! TF.CreationDate,2020-01-16T18:23:42+01:00
; #@! TF.GenerationSoftware,Kicad,Pcbnew,(5.1.4)-1
; #@! TF.FileFunction,Plated,1,2,PTH
FMAT,2
INCH
T1C0.0157
T2C0.0315
T3C0.0394
T4C0.0433
%
G90
G05
T1
X4.73Y-4.89
X5.04Y-4.76
X5.43Y-4.4
X6.5Y-4.31
X6.83Y-4.76
X7.23Y-4.57
X7.29Y-4.44
X7.56Y-4.61
T2
X6.7Y-4.3
X6.7Y-4.9
X6.8Y-4.3
X6.8Y-4.9
X6.9Y-4.3
X6.9Y-4.9
X7.0Y-4.3
X7.0Y-4.9
X7.1Y-4.3
X7.1Y-4.9
X7.2Y-4.3
X7.2Y-4.9
X7.3Y-4.3
X7.3Y-4.9
X7.4Y-4.3
X7.4Y-4.9
X7.5Y-4.3
X7.5Y-4.9
X7.6Y-4.3
X7.6Y-4.9
X7.7Y-4.3
X7.7Y-4.9
X7.8Y-4.3
X7.8Y-4.9
X7.9Y-4.3
X7.9Y-4.9
X8.0Y-4.3
X8.0Y-4.9
X8.1Y-4.3
X8.1Y-4.9
T3
X3.6Y-4.1
X3.7Y-4.1
X6.7Y-5.1
X6.8Y-5.1
X6.9Y-5.1
X7.0Y-5.1
X7.1Y-5.1
X7.2Y-5.1
X7.3Y-5.1
X7.4Y-5.1
X7.5Y-5.1
X7.6Y-5.1
X7.7Y-5.1
X7.8Y-5.1
X7.9Y-5.1
X8.0Y-5.1
X8.1Y-5.1
X6.7Y-4.1
X6.8Y-4.1
X6.9Y-4.1
X7.0Y-4.1
X7.1Y-4.1
X7.2Y-4.1
X7.3Y-4.1
X7.4Y-4.1
X7.5Y-4.1
X7.6Y-4.1
X7.7Y-4.1
X7.8Y-4.1
X7.9Y-4.1
X8.0Y-4.1
X8.1Y-4.1
X5.8Y-4.1
X5.9Y-4.1
X6.0Y-4.1
X6.1Y-4.1
X4.5Y-4.6
X4.5Y-4.7
X4.5Y-4.8
X4.5Y-4.9
X4.3Y-4.1
X4.4Y-4.1
X4.9Y-4.1
X5.0Y-4.1
X5.1Y-4.1
X5.2Y-4.1
X5.3Y-4.1
T4
X3.9Y-5.6
X3.9Y-5.7772
X4.1559Y-5.6
X4.1559Y-5.7772
X7.9Y-5.5
X7.9Y-5.6772
X8.1559Y-5.5
X8.1559Y-5.6772
X7.4Y-5.5
X7.4Y-5.6772
X7.6559Y-5.5
X7.6559Y-5.6772
X4.4Y-5.5
X4.4Y-5.6772
X4.6559Y-5.5
X4.6559Y-5.6772
X3.5Y-5.1
X3.5Y-5.2772
X3.7559Y-5.1
X3.7559Y-5.2772
X3.9Y-5.1
X3.9Y-5.2772
X4.1559Y-5.1
X4.1559Y-5.2772
X6.4Y-5.5
X6.4Y-5.6772
X6.6559Y-5.5
X6.6559Y-5.6772
X6.9Y-5.5
X6.9Y-5.6772
X7.1559Y-5.5
X7.1559Y-5.6772
X5.4Y-5.5
X5.4Y-5.6772
X5.6559Y-5.5
X5.6559Y-5.6772
X3.5Y-5.6
X3.5Y-5.7772
X3.7559Y-5.6
X3.7559Y-5.7772
X4.9Y-5.5
X4.9Y-5.6772
X5.1559Y-5.5
X5.1559Y-5.6772
X5.9Y-5.5
X5.9Y-5.6772
X6.1559Y-5.5
X6.1559Y-5.6772
T0
M30
